<?xml version="1.0" encoding="utf-8"?>
<!-- Generator: Adobe Illustrator 26.3.1, SVG Export Plug-In . SVG Version: 6.00 Build 0)  -->
<svg version="1.1" id="logo-color" fill="#F2F2F2" xmlns="http://www.w3.org/2000/svg" xmlns:xlink="http://www.w3.org/1999/xlink" x="0px"
	 y="0px" viewBox="0 0 1008 159.8" style="enable-background:new 0 0 1008 159.8;" xml:space="preserve">
<g>
	<path d="M26.21,48.75c4.85,0,9.7,0,14.56,0c3.06,0,6.11,0.02,9.17,0.03c1.57,0,2.21-0.48,2.69-1.98
		c4.85-15.06,9.7-30.11,14.56-45.17c0.34-1.05,1.07-1.62,2.07-1.64c0.99-0.01,1.78,0.59,2.12,1.64
		c3.77,11.52,7.54,23.04,11.31,34.56c1.19,3.62,2.38,7.25,3.57,10.87c0.33,1,1.08,1.54,2.13,1.55c2.13,0.01,4.25,0.03,6.38,0.03
		c7.88,0.01,15.75,0.02,23.63,0.03c5.91,0.01,11.83,0.02,17.74,0.03c1.11,0,1.92,0.54,2.24,1.49c0.32,0.95-0.01,1.86-0.92,2.52
		c-12.75,9.2-25.51,18.4-38.27,27.59c-0.54,0.39-1.17,0.74-1.31,1.43c-0.1,0.5-0.14,1.07,0.02,1.55c1.66,5.2,3.35,10.38,5.04,15.57
		c3.27,10.04,6.54,20.09,9.81,30.13c0.34,1.06,0.07,1.97-0.76,2.57c-0.81,0.58-1.75,0.54-2.67-0.13
		c-12.96-9.31-25.92-18.62-38.88-27.93c-1.11-0.8-1.95-0.8-3.05,0c-12.67,9.25-25.35,18.5-38.01,27.77c-1.36,1-2.7,0.52-3.29-0.33
		c-0.43-0.61-0.5-1.27-0.26-1.99c1.55-4.73,3.09-9.46,4.64-14.18c3.4-10.39,6.81-20.77,10.21-31.15c0.37-1.14,0.07-2.01-0.97-2.77
		c-12.85-9.35-25.7-18.7-38.55-28.05c-1.07-0.78-1.41-1.77-0.93-2.79c0.39-0.83,1.05-1.26,1.97-1.27c1.43-0.01,2.86,0,4.29,0
		C13.05,48.75,19.63,48.75,26.21,48.75z M50,61.45c-3.09,0-6.18,0-9.27,0c-0.58,0-1.08,0.15-1.5,0.54
		c-1.07,0.99-0.94,2.58,0.29,3.48c4.95,3.61,9.91,7.21,14.86,10.82c1,0.73,1.27,1.55,0.89,2.69c-1.89,5.77-3.78,11.54-5.66,17.31
		c-0.36,1.09-0.09,2.03,0.73,2.62c0.84,0.61,1.8,0.57,2.72-0.1c4.8-3.51,9.6-7.01,14.4-10.52c1.24-0.91,1.98-0.9,3.24,0
		c4.92,3.54,9.84,7.07,14.77,10.61c0.94,0.68,1.89,0.71,2.72,0.11c0.83-0.6,1.09-1.53,0.74-2.62c-1.89-5.82-3.79-11.64-5.68-17.46
		c-0.4-1.24-0.14-2.05,0.91-2.82c4.93-3.56,9.86-7.11,14.79-10.67c0.92-0.66,1.23-1.57,0.89-2.57c-0.31-0.93-1.1-1.46-2.19-1.46
		c-1.81-0.01-3.62-0.03-5.43-0.03c-4.25-0.01-8.51-0.01-12.76-0.02c-1.32,0-1.99-0.48-2.4-1.73c-1.89-5.77-3.78-11.54-5.68-17.3
		c-0.11-0.32-0.26-0.66-0.48-0.91c-1.11-1.29-3.19-0.85-3.72,0.78c-1.89,5.84-3.77,11.68-5.66,17.52c-0.39,1.2-1.11,1.73-2.36,1.73
		C56.12,61.45,53.06,61.45,50,61.45z"/>
	<path d="M175.17,64.26c2.91,0,5.82,0,8.72,0c1.17,0,1.95,0.52,2.27,1.5c0.32,0.98-0.01,1.85-0.97,2.54
		c-9.99,7.21-19.99,14.41-29.98,21.62c-2.87,2.07-5.74,4.14-8.61,6.21c-1,0.72-1.3,1.6-0.93,2.73c3.95,12.13,7.89,24.25,11.84,36.38
		c1.01,3.11,2.02,6.21,3.02,9.32c0.34,1.04,0.07,1.93-0.74,2.52c-0.8,0.59-1.73,0.57-2.63-0.07c-4.82-3.46-9.63-6.91-14.44-10.38
		c-0.17-0.13-0.3-0.37-0.37-0.59c-0.6-1.88-1.15-3.77-1.76-5.65c-3.62-11.15-7.25-22.3-10.88-33.45c-0.53-1.62-1.04-3.25-1.6-4.87
		c-0.12-0.35-0.04-0.52,0.25-0.72c11.99-8.64,23.98-17.28,35.97-25.93c0.2-0.15,0.43-0.27,0.59-0.45c0.55-0.65,1.23-0.77,2.06-0.75
		c2.72,0.06,5.45,0.02,8.17,0.02C175.17,64.24,175.17,64.25,175.17,64.26z"/>
	<path d="M151.4,56.33c2.71,0,5.42,0,8.12,0c1.13,0,1.91,0.52,2.22,1.48c0.32,0.97,0.01,1.85-0.92,2.51
		c-9.24,6.67-18.48,13.33-27.72,19.99c-3.64,2.62-7.27,5.25-10.91,7.87c-1.03,0.74-1.32,1.59-0.92,2.82
		c1.76,5.43,3.53,10.85,5.3,16.27c3.19,9.79,6.37,19.59,9.55,29.38c0.32,0.99,0.04,1.91-0.74,2.48c-0.79,0.58-1.74,0.58-2.59-0.02
		c-4.49-3.22-8.98-6.45-13.47-9.68c-0.12-0.09-0.24-0.23-0.28-0.37c-0.53-1.8-0.98-3.61-1.56-5.39c-3.43-10.6-6.88-21.2-10.33-31.8
		c-0.8-2.46-1.59-4.92-2.41-7.38c-0.13-0.38-0.05-0.55,0.25-0.77c9.69-6.98,19.37-13.96,29.06-20.95c2.36-1.7,4.72-3.4,7.07-5.1
		c0.41-0.3,0.82-0.63,1.17-1c0.29-0.31,0.57-0.42,0.99-0.42c2.71,0.02,5.42,0.01,8.12,0.01C151.4,56.3,151.4,56.31,151.4,56.33z"/>
	<path d="M105.65,42.5c-1.12,0-2.15,0-3.18,0c-3.54-0.01-7.07-0.03-10.61-0.02c-0.45,0-0.66-0.1-0.81-0.56
		c-1.8-5.55-3.62-11.1-5.42-16.64c-0.07-0.2-0.07-0.46-0.01-0.66c1.64-5.15,3.3-10.29,4.96-15.44c0.32-0.99,1.09-1.57,2.07-1.57
		c1.01-0.01,1.75,0.55,2.09,1.59c3.35,10.22,6.7,20.45,10.05,30.67C105.07,40.72,105.34,41.56,105.65,42.5z"/>
	<path d="M80.65,118.49c-1.84,1.34-3.62,2.64-5.4,3.94c-7.52,5.49-15.04,10.98-22.56,16.47c-1.1,0.8-2.19,0.76-3.05-0.13
		c-0.58-0.61-0.74-1.33-0.48-2.12c0.7-2.18,1.42-4.35,2.13-6.52c0.99-3.02,1.97-6.05,2.98-9.07c0.09-0.26,0.29-0.52,0.51-0.69
		c4.58-3.36,9.16-6.7,13.74-10.06c0.25-0.18,0.42-0.27,0.73-0.05c3.71,2.69,7.44,5.35,11.16,8.03
		C80.47,118.34,80.53,118.4,80.65,118.49z"/>
	<path d="M127.46,42.52c-0.42,0-0.78,0-1.14,0c-4.55-0.01-9.1-0.02-13.66-0.01c-0.38,0-0.55-0.1-0.67-0.47
		c-0.78-2.45-1.6-4.88-2.38-7.33c-0.09-0.28-0.08-0.63,0.01-0.9c1.77-5.53,3.55-11.05,5.34-16.57c0.35-1.1,1.12-1.71,2.12-1.71
		c1,0,1.76,0.62,2.12,1.72c2.7,8.24,5.4,16.48,8.1,24.73C127.34,42.13,127.39,42.31,127.46,42.52z"/>
	<path d="M85.97,122.29c4.14,2.97,8.27,5.94,12.45,8.94c-0.13,0.11-0.22,0.2-0.32,0.28c-7.01,5.12-14.03,10.24-21.04,15.36
		c-0.98,0.72-2.01,0.72-2.83,0c-0.74-0.65-0.92-1.47-0.62-2.39c0.97-2.96,1.94-5.92,2.91-8.89c0.88-2.68,1.75-5.36,2.64-8.03
		c0.07-0.22,0.21-0.46,0.39-0.6c2.07-1.53,4.15-3.04,6.23-4.56C85.83,122.37,85.89,122.34,85.97,122.29z"/>
</g>
<g>
	<path d="M265.94,86.05h-64.76c-2.49,0-4.5-2.01-4.5-4.5V65.96c0-2.49,2.01-4.5,4.5-4.5h64.76c2.49,0,4.5,2.01,4.5,4.5v15.59
		C270.44,84.03,268.42,86.05,265.94,86.05z"/>
	<path d="M265.94,122.93h-64.76c-2.49,0-4.5-2.01-4.5-4.5v-15.59c0-2.49,2.01-4.5,4.5-4.5h64.76c2.49,0,4.5,2.01,4.5,4.5v15.59
		C270.44,120.91,268.42,122.93,265.94,122.93z"/>
	<path d="M265.94,49.17h-64.76c-2.49,0-4.5-2.01-4.5-4.5V29.09c0-2.49,2.01-4.5,4.5-4.5h64.76c2.49,0,4.5,2.01,4.5,4.5v15.59
		C270.44,47.16,268.42,49.17,265.94,49.17z"/>
	<path d="M488.63,67.61L488.63,67.61c-1.7,0-3.07-1.38-3.07-3.07V46.1c0-1.7,1.38-3.07,3.07-3.07l0,0c1.7,0,3.07,1.38,3.07,3.07
		v18.44C491.71,66.23,490.33,67.61,488.63,67.61z"/>
	<path d="M500.93,67.61L500.93,67.61c-1.7,0-3.07-1.38-3.07-3.07V46.1c0-1.7,1.38-3.07,3.07-3.07l0,0c1.7,0,3.07,1.38,3.07,3.07
		v18.44C504,66.23,502.62,67.61,500.93,67.61z"/>
	<path d="M345.84,86.05h-15.59c-2.49,0-4.5-2.01-4.5-4.5V29.09c0-2.49,2.01-4.5,4.5-4.5h15.59c2.49,0,4.5,2.01,4.5,4.5v52.46
		C350.34,84.03,348.33,86.05,345.84,86.05z"/>
	<path d="M476.34,43.02h-6.15c-1.7,0-3.07-1.38-3.07-3.07V27.66c0-1.7-1.38-3.07-3.07-3.07h-18.44c-1.7,0-3.07,1.38-3.07,3.07v12.29
		c0,1.7-1.38,3.07-3.07,3.07h-30.73c-1.7,0-3.07,1.38-3.07,3.07v18.44c0,1.7,1.38,3.07,3.07,3.07h30.73c1.7,0,3.07,1.38,3.07,3.07
		v49.17c0,1.7,1.38,3.07,3.07,3.07h18.44c1.7,0,3.07-1.38,3.07-3.07V70.68c0-1.7,1.38-3.07,3.07-3.07h6.15
		c1.7,0,3.07-1.38,3.07-3.07V46.1C479.41,44.4,478.04,43.02,476.34,43.02z"/>
	<path d="M308.96,86.05h-15.59c-2.49,0-4.5-2.01-4.5-4.5V29.09c0-2.49,2.01-4.5,4.5-4.5h15.59c2.49,0,4.5,2.01,4.5,4.5v52.46
		C313.46,84.03,311.45,86.05,308.96,86.05z"/>
	<path d="M425.74,122.93h-15.59c-2.49,0-4.5-2.01-4.5-4.5V84.4c0-2.49,2.01-4.5,4.5-4.5h15.59c2.49,0,4.5,2.01,4.5,4.5v34.02
		C430.24,120.91,428.23,122.93,425.74,122.93z"/>
	<path d="M499.5,122.93h-15.59c-2.49,0-4.5-2.01-4.5-4.5V84.4c0-2.49,2.01-4.5,4.5-4.5h15.59c2.49,0,4.5,2.01,4.5,4.5v34.02
		C504,120.91,501.99,122.93,499.5,122.93z"/>
	<g>
		<path d="M362.63,27.66v67.61c0,1.7-1.38,3.07-3.07,3.07h-6.15c-1.7,0-3.07,1.38-3.07,3.07v18.44c0,1.7,1.38,3.07,3.07,3.07h30.73
			c1.7,0,3.07-1.38,3.07-3.07v-92.2c0-1.7-1.38-3.07-3.07-3.07h-18.44C364.01,24.59,362.63,25.96,362.63,27.66z"/>
	</g>
	<path d="M571.61,81.55V65.96c0-2.49-2.01-4.5-4.5-4.5h-40.17c-2.49,0-4.5,2.01-4.5,4.5v15.59c0,2.49,2.01,4.5,4.5,4.5h40.17
		C569.6,86.05,571.61,84.03,571.61,81.55z"/>
	<path d="M571.61,44.67V29.09c0-2.49-2.01-4.5-4.5-4.5h-40.17c-2.49,0-4.5,2.01-4.5,4.5v15.59c0,2.49,2.01,4.5,4.5,4.5h40.17
		C569.6,49.17,571.61,47.16,571.61,44.67z"/>
	<g>
		<path d="M525.51,98.34h55.32c1.7,0,3.07-1.38,3.07-3.07v-6.15c0-1.7,1.38-3.07,3.07-3.07h18.44c1.7,0,3.07,1.38,3.07,3.07v30.73
			c0,1.7-1.38,3.07-3.07,3.07h-79.9c-1.7,0-3.07-1.38-3.07-3.07v-18.44C522.44,99.72,523.81,98.34,525.51,98.34z"/>
	</g>
	<path d="M676.1,76.83v18.44c0,1.7-1.38,3.07-3.07,3.07h-18.44c-1.7,0-3.07-1.38-3.07-3.07V27.66c0-1.7-1.38-3.07-3.07-3.07H630
		c-1.7,0-3.07,1.38-3.07,3.07v92.2c0,1.7,1.38,3.07,3.07,3.07h67.61c1.7,0,3.07-1.38,3.07-3.07v-18.44c0-1.7,1.38-3.07,3.07-3.07
		h6.15c1.7,0,3.07-1.38,3.07-3.07V76.83c0-1.7-1.38-3.07-3.07-3.07h-30.73C677.47,73.76,676.1,75.13,676.1,76.83z"/>
	<path d="M725.27,27.66V46.1c0,1.7,1.38,3.07,3.07,3.07h43.02c1.7,0,3.07,1.38,3.07,3.07v43.02c0,1.7-1.38,3.07-3.07,3.07h-43.02
		c-1.7,0-3.07,1.38-3.07,3.07v18.44c0,1.7,1.38,3.07,3.07,3.07h67.61c1.7,0,3.07-1.38,3.07-3.07v-92.2c0-1.7-1.38-3.07-3.07-3.07
		h-67.61C726.64,24.59,725.27,25.96,725.27,27.66z"/>
	<path d="M880.57,86.05h-64.76c-2.49,0-4.5-2.01-4.5-4.5V65.96c0-2.49,2.01-4.5,4.5-4.5h64.76c2.49,0,4.5,2.01,4.5,4.5v15.59
		C885.07,84.03,883.06,86.05,880.57,86.05z"/>
	<path d="M992.63,49.17L992.63,49.17c-1.7,0-3.07-1.38-3.07-3.07V27.66c0-1.7,1.38-3.07,3.07-3.07l0,0c1.7,0,3.07,1.38,3.07,3.07
		V46.1C995.71,47.79,994.33,49.17,992.63,49.17z"/>
	<path d="M1004.93,49.17L1004.93,49.17c-1.7,0-3.07-1.38-3.07-3.07V27.66c0-1.7,1.38-3.07,3.07-3.07l0,0c1.7,0,3.07,1.38,3.07,3.07
		V46.1C1008,47.79,1006.62,49.17,1004.93,49.17z"/>
	<path d="M897.37,27.66V46.1c0,1.7,1.38,3.07,3.07,3.07h55.32c1.7,0,3.07,1.38,3.07,3.07v6.15c0,1.7-1.38,3.07-3.07,3.07h-55.32
		c-1.7,0-3.07,1.38-3.07,3.07v55.32c0,1.7,1.38,3.07,3.07,3.07h18.44c1.7,0,3.07-1.38,3.07-3.07V89.12c0-1.7,1.38-3.07,3.07-3.07
		h6.15c1.7,0,3.07,1.38,3.07,3.07v30.73c0,1.7,1.38,3.07,3.07,3.07h43.02c1.7,0,3.07-1.38,3.07-3.07v-18.44
		c0-1.7-1.38-3.07-3.07-3.07H961.9c-1.7,0-3.07-1.38-3.07-3.07v-6.15c0-1.7,1.38-3.07,3.07-3.07h18.44c1.7,0,3.07-1.38,3.07-3.07
		V27.66c0-1.7-1.38-3.07-3.07-3.07h-79.9C898.74,24.59,897.37,25.96,897.37,27.66z"/>
</g>
<polygon points="215.12,135.22 208.98,135.22 202.83,135.22 196.68,135.22 196.68,141.37 196.68,159.8 202.83,159.8 202.83,141.37 
	208.98,141.37 208.98,159.8 215.12,159.8 215.12,141.37 221.27,141.37 221.27,159.8 227.41,159.8 227.41,141.37 227.41,135.22 
	221.27,135.22 "/>
<rect x="233.56" y="135.22" width="6.15" height="24.59"/>
<rect x="424.1" y="135.22" width="6.15" height="24.59"/>
<polygon points="270.44,141.37 270.44,147.51 276.59,147.51 276.59,141.37 288.88,141.37 288.88,135.22 270.44,135.22 "/>
<polygon points="282.73,153.66 270.44,153.66 270.44,159.8 288.88,159.8 288.88,153.66 288.88,147.51 282.73,147.51 "/>
<polygon points="374.93,141.37 374.93,147.51 381.07,147.51 381.07,141.37 393.37,141.37 393.37,135.22 374.93,135.22 "/>
<polygon points="387.22,153.66 374.93,153.66 374.93,159.8 393.37,159.8 393.37,153.66 393.37,147.51 387.22,147.51 "/>
<polygon points="596.2,135.22 596.2,141.37 596.2,147.51 602.34,147.51 602.34,141.37 614.63,141.37 614.63,135.22 "/>
<polygon points="608.49,153.66 596.2,153.66 596.2,159.8 614.63,159.8 614.63,153.66 614.63,147.51 608.49,147.51 "/>
<polygon points="307.32,153.66 301.17,153.66 301.17,135.22 295.02,135.22 295.02,159.8 301.17,159.8 307.32,159.8 313.46,159.8 
	313.46,135.22 307.32,135.22 "/>
<rect x="331.9" y="141.37" width="6.15" height="6.15"/>
<polygon points="338.05,153.66 331.9,153.66 331.9,147.51 325.76,147.51 325.76,141.37 331.9,141.37 331.9,135.22 325.76,135.22 
	319.61,135.22 319.61,153.66 325.76,153.66 325.76,159.8 338.05,159.8 344.2,159.8 344.2,147.51 338.05,147.51 "/>
<path d="M356.49,135.22h-6.15v24.59h6.15h6.15h6.15v-24.59h-6.15H356.49z M362.63,153.66h-6.15v-12.29h6.15V153.66z"/>
<polygon points="411.8,141.37 405.66,141.37 405.66,135.22 399.51,135.22 399.51,159.8 405.66,159.8 405.66,147.51 411.8,147.51 
	411.8,159.8 417.95,159.8 417.95,135.22 411.8,135.22 "/>
<polygon points="252,135.22 245.85,135.22 245.85,141.37 252,141.37 252,159.8 258.15,159.8 258.15,141.37 264.29,141.37 
	264.29,135.22 258.15,135.22 "/>
<polygon points="448.68,135.22 448.68,159.8 454.83,159.8 454.83,153.66 460.98,153.66 460.98,147.51 454.83,147.51 454.83,141.37 
	460.98,141.37 460.98,147.51 467.12,147.51 467.12,141.37 467.12,135.22 454.83,135.22 "/>
<rect x="460.98" y="153.66" width="6.15" height="6.15"/>
<polygon points="547.02,135.22 547.02,159.8 553.17,159.8 553.17,153.66 559.32,153.66 559.32,147.51 553.17,147.51 553.17,141.37 
	559.32,141.37 559.32,147.51 565.46,147.51 565.46,141.37 565.46,135.22 553.17,135.22 "/>
<rect x="559.32" y="153.66" width="6.15" height="6.15"/>
<polygon points="473.27,141.37 473.27,153.66 473.27,159.8 491.71,159.8 491.71,153.66 485.56,153.66 485.56,147.51 479.41,147.51 
	479.41,141.37 491.71,141.37 491.71,135.22 473.27,135.22 "/>
<polygon points="497.85,141.37 497.85,153.66 497.85,159.8 516.29,159.8 516.29,153.66 504,153.66 504,141.37 516.29,141.37 
	516.29,135.22 497.85,135.22 "/>
<path d="M528.59,135.22h-6.15v24.59h6.15h6.15h6.15v-24.59h-6.15H528.59z M534.73,153.66h-6.15v-12.29h6.15V153.66z"/>
<polygon points="577.76,141.37 583.9,141.37 583.9,135.22 577.76,135.22 571.61,135.22 571.61,159.8 577.76,159.8 583.9,159.8 
	583.9,153.66 577.76,153.66 "/>
<rect x="583.9" y="141.37" width="6.15" height="12.29"/>
</svg>
