<?xml version="1.0" encoding="UTF-8"?>
<svg id="_レイヤー_1" data-name="レイヤー_1" xmlns="http://www.w3.org/2000/svg" version="1.1" viewBox="0 0 1480 243">
  <!-- Generator: Adobe Illustrator 29.0.1, SVG Export Plug-In . SVG Version: 2.1.0 Build 192)  -->
  <g>
    <path d="M75.12,71.43c2.29,0,3.23-.71,3.94-2.9,7.1-22.05,14.21-44.09,21.32-66.14C100.87.86,101.95.02,103.4,0c1.45-.02,2.61.86,3.11,2.4,5.52,16.87,20.04,61.22,21.79,66.53.48,1.46,1.59,2.25,3.12,2.26,3.11.02,61.26.13,69.92.15,1.63,0,2.81.79,3.27,2.18.47,1.39-.01,2.73-1.34,3.69-18.68,13.47-37.35,26.94-56.03,40.4-.79.57-1.71,1.08-1.92,2.1-.15.73-.2,1.57.02,2.27,2.42,7.61,16.96,52.22,21.74,66.92.5,1.55.1,2.89-1.12,3.76-1.19.85-2.56.79-3.92-.19-18.98-13.63-37.96-27.26-56.93-40.9-1.62-1.17-2.85-1.17-4.47,0-18.56,13.55-37.13,27.09-55.66,40.67-2,1.46-3.95.76-4.82-.48-.63-.9-.73-1.86-.38-2.91,2.28-6.92,16.76-51.18,21.75-66.39.55-1.68.1-2.95-1.42-4.05-18.81-13.69-37.63-27.39-56.45-41.08-1.56-1.14-2.06-2.59-1.36-4.09.57-1.22,1.54-1.85,2.89-1.86,2.09,0,4.18,0,6.28,0,9.63,0,59.17.03,63.64.05ZM61.64,89.97c-.85,0-1.58.23-2.2.8-1.57,1.44-1.38,3.77.43,5.09,7.25,5.28,14.51,10.56,21.76,15.84,1.46,1.07,1.86,2.27,1.31,3.94-2.76,8.45-5.53,16.89-8.29,25.34-.52,1.6-.14,2.97,1.07,3.84,1.23.89,2.63.84,3.98-.15,7.03-5.13,14.06-10.27,21.09-15.4,1.82-1.33,2.9-1.32,4.75,0,7.21,5.18,14.41,10.36,21.62,15.54,1.38.99,2.77,1.04,3.99.16,1.21-.88,1.6-2.25,1.08-3.84-2.77-8.52-5.54-17.04-8.32-25.56-.59-1.82-.21-3.01,1.34-4.12,7.22-5.21,14.44-10.41,21.65-15.62,1.35-.97,1.8-2.3,1.31-3.76-.46-1.37-1.61-2.13-3.21-2.14-2.65-.02-20.41-.07-26.64-.07-1.93,0-2.91-.7-3.51-2.53-2.77-8.44-5.53-16.89-8.32-25.33-.16-.47-.38-.97-.7-1.34-1.62-1.88-4.68-1.24-5.45,1.15-2.77,8.55-5.52,17.1-8.28,25.65-.57,1.76-1.62,2.53-3.46,2.53-4.48,0-22.48,0-27.01,0Z"/>
    <path d="M271.27,94.09c1.71,0,2.85.76,3.32,2.19.47,1.44-.01,2.71-1.41,3.72-14.63,10.55-52.31,37.72-56.51,40.75-1.47,1.06-1.91,2.35-1.37,4,5.78,17.76,20.29,62.37,21.76,66.92.49,1.53.1,2.83-1.08,3.69-1.18.86-2.54.84-3.85-.1-7.05-5.06-14.11-10.12-21.15-15.2-.26-.18-.44-.54-.54-.86-.87-2.75-20.03-62.01-20.84-64.38-.18-.51-.06-.76.36-1.06,17.56-12.65,53.3-38.36,53.53-38.63.81-.95,1.8-1.13,3.02-1.1,3.99.09,20.49.06,24.74.06Z"/>
    <path d="M235.59,82.48c1.66,0,2.8.76,3.26,2.17.47,1.42,0,2.7-1.34,3.68-13.53,9.76-51.24,36.95-56.56,40.79-1.51,1.09-1.93,2.33-1.34,4.13,2.58,7.94,17.09,52.51,21.75,66.85.47,1.45.06,2.79-1.09,3.64-1.15.85-2.55.86-3.8-.04-6.58-4.72-13.16-9.44-19.73-14.17-.18-.13-.35-.34-.41-.54-.77-2.63-19.73-61.66-20.94-65.25-.19-.56-.08-.8.36-1.12,14.19-10.22,54.1-39.07,54.6-39.62.42-.46.84-.62,1.45-.61,3.97.03,19.83.08,23.79.09Z"/>
    <path d="M156.7,62.24c-1.65,0-15.02-.05-20.2-.03-.66,0-.97-.15-1.18-.82-2.63-8.13-5.3-16.25-7.94-24.37-.1-.3-.1-.68,0-.97,2.41-7.54,4.83-15.07,7.26-22.6.47-1.45,1.6-2.29,3.02-2.3,1.47,0,2.57.81,3.07,2.33,4.91,14.97,15.52,47.39,15.97,48.77Z"/>
    <path d="M120.1,173.51c-2.69,1.96-29.93,21.86-40.94,29.9-1.61,1.18-3.21,1.11-4.46-.19-.85-.89-1.08-1.95-.71-3.1,1.03-3.19,6.01-18.41,7.48-22.83.13-.38.42-.77.74-1.01,6.7-4.92,13.42-9.82,20.12-14.73.36-.27.62-.4,1.07-.08,5.43,3.93,10.89,7.84,16.33,11.75.1.07.19.15.36.29Z"/>
    <path d="M188.64,62.26c-.61,0-15.01-.02-21.67-.01-.55,0-.81-.15-.98-.69-1.15-3.58-2.34-7.15-3.48-10.74-.13-.4-.12-.92.01-1.32,2.59-8.09,5.2-16.18,7.82-24.27.52-1.61,1.64-2.51,3.1-2.51,1.46,0,2.58.92,3.1,2.52,3.95,12.07,12.01,36.71,12.11,37.02Z"/>
    <path d="M127.88,179.07c6.06,4.35,12.11,8.7,18.23,13.1-.19.17-.32.3-.47.41-10.27,7.5-20.54,15-30.81,22.5-1.44,1.05-2.95,1.05-4.14,0-1.09-.96-1.35-2.15-.91-3.51,1.42-4.34,6.83-20.86,8.13-24.78.11-.32.31-.68.57-.87,3.03-2.24,6.08-4.46,9.12-6.68.08-.06.16-.1.28-.17Z"/>
  </g>
  <rect x="290" y="90" width="108" height="36" rx="4.5" ry="4.5"/>
  <rect x="290" y="144" width="108" height="36" rx="4.5" ry="4.5"/>
  <rect x="290" y="36" width="108" height="36" rx="4.5" ry="4.5"/>
  <rect x="713" y="63" width="9" height="36" rx="4.5" ry="4.5"/>
  <rect x="731" y="63" width="9" height="36" rx="4.5" ry="4.5"/>
  <rect x="479" y="36" width="36" height="90" rx="4.5" ry="4.5"/>
  <path d="M699.5,63h-9c-2.49,0-4.5-2.01-4.5-4.5v-18c0-2.49-2.01-4.5-4.5-4.5h-27c-2.49,0-4.5,2.01-4.5,4.5v18c0,2.49-2.01,4.5-4.5,4.5h-45c-2.49,0-4.5,2.01-4.5,4.5v27c0,2.49,2.01,4.5,4.5,4.5h45c2.49,0,4.5,2.01,4.5,4.5v72c0,2.49,2.01,4.5,4.5,4.5h27c2.49,0,4.5-2.01,4.5-4.5v-72c0-2.49,2.01-4.5,4.5-4.5h9c2.49,0,4.5-2.01,4.5-4.5v-27c0-2.49-2.01-4.5-4.5-4.5Z"/>
  <rect x="425" y="36" width="36" height="90" rx="4.5" ry="4.5"/>
  <rect x="596" y="117" width="36" height="63" rx="4.5" ry="4.5"/>
  <rect x="704" y="117" width="36" height="63" rx="4.5" ry="4.5"/>
  <path d="M533,40.5v99c0,2.49-2.01,4.5-4.5,4.5h-9c-2.49,0-4.5,2.01-4.5,4.5v27c0,2.49,2.01,4.5,4.5,4.5h45c2.49,0,4.5-2.01,4.5-4.5V40.5c0-2.49-2.01-4.5-4.5-4.5h-27c-2.49,0-4.5,2.01-4.5,4.5Z"/>
  <rect x="785" y="72" width="36" height="72" rx="4.5" ry="4.5" transform="translate(911 -695) rotate(90)"/>
  <rect x="785" y="18" width="36" height="72" rx="4.5" ry="4.5" transform="translate(857 -749) rotate(90)"/>
  <path d="M771.5,144h81c2.49,0,4.5-2.01,4.5-4.5v-9c0-2.49,2.01-4.5,4.5-4.5h27c2.49,0,4.5,2.01,4.5,4.5v45c0,2.49-2.01,4.5-4.5,4.5h-117c-2.49,0-4.5-2.01-4.5-4.5v-27c0-2.49,2.01-4.5,4.5-4.5Z"/>
  <polygon points="290 198 290 234 299 234 299 207 308 207 308 234 317 234 317 207 326 207 326 234 335 234 335 198 290 198"/>
  <rect x="344" y="198" width="9" height="36"/>
  <rect x="623" y="198" width="9" height="36"/>
  <polygon points="398 216 407 216 407 207 425 207 425 198 398 198 398 216"/>
  <polygon points="416 225 398 225 398 234 425 234 425 216 416 216 416 225"/>
  <polygon points="551 216 560 216 560 207 578 207 578 198 551 198 551 216"/>
  <polygon points="569 225 551 225 551 234 578 234 578 216 569 216 569 225"/>
  <polygon points="452 225 443 225 443 198 434 198 434 234 461 234 461 198 452 198 452 225"/>
  <rect x="488" y="207" width="9" height="9"/>
  <polygon points="497 225 488 225 488 216 479 216 479 207 488 207 488 198 470 198 470 225 479 225 479 234 506 234 506 216 497 216 497 225"/>
  <path d="M515,198v36h27v-36h-27ZM533,225h-9v-18h9v18Z"/>
  <polygon points="605 207 596 207 596 198 587 198 587 234 596 234 596 216 605 216 605 234 614 234 614 198 605 198 605 207"/>
  <polygon points="362 198 362 207 371 207 371 234 380 234 380 207 389 207 389 198 362 198"/>
  <rect x="1226" y="18" width="36" height="72" rx="4.5" ry="4.5" transform="translate(1298 -1190) rotate(90)"/>
  <rect x="1289" y="36" width="9" height="36" rx="4.5" ry="4.5"/>
  <rect x="1307" y="36" width="9" height="36" rx="4.5" ry="4.5"/>
  <rect x="1226" y="72" width="36" height="72" rx="4.5" ry="4.5" transform="translate(1352 -1136) rotate(90)"/>
  <path d="M1212.5,144h81c2.49,0,4.5-2.01,4.5-4.5v-9c0-2.49,2.01-4.5,4.5-4.5h27c2.49,0,4.5,2.01,4.5,4.5v45c0,2.49-2.01,4.5-4.5,4.5h-117c-2.49,0-4.5-2.01-4.5-4.5v-27c0-2.49,2.01-4.5,4.5-4.5Z"/>
  <path d="M920,40.5v27c0,2.49,2.01,4.5,4.5,4.5h81c2.49,0,4.5,2.01,4.5,4.5v9c0,2.49-2.01,4.5-4.5,4.5h-81c-2.49,0-4.5,2.01-4.5,4.5v81c0,2.49,2.01,4.5,4.5,4.5h27c2.49,0,4.5-2.01,4.5-4.5v-45c0-2.49,2.01-4.5,4.5-4.5h9c2.49,0,4.5,2.01,4.5,4.5v45c0,2.49,2.01,4.5,4.5,4.5h63c2.49,0,4.5-2.01,4.5-4.5v-27c0-2.49-2.01-4.5-4.5-4.5h-27c-2.49,0-4.5-2.01-4.5-4.5v-9c0-2.49,2.01-4.5,4.5-4.5h27c2.49,0,4.5-2.01,4.5-4.5V40.5c0-2.49-2.01-4.5-4.5-4.5h-117c-2.49,0-4.5,2.01-4.5,4.5Z"/>
  <path d="M1073,121.5V40.5c0-2.49,2.01-4.5,4.5-4.5h99c2.49,0,4.5,2.01,4.5,4.5v135c0,2.49-2.01,4.5-4.5,4.5h-27c-2.49,0-4.5-2.01-4.5-4.5v-45c0-2.49-2.01-4.5-4.5-4.5h-9c-2.49,0-4.5-2.01-4.5-4.5v-27c0-2.49,2.01-4.5,4.5-4.5h9c2.49,0,4.5-2.01,4.5-4.5v-9c0-2.49-2.01-4.5-4.5-4.5h-27c-2.49,0-4.5,2.01-4.5,4.5v45c0,2.49-2.01,4.5-4.5,4.5h-27c-2.49,0-4.5-2.01-4.5-4.5Z"/>
  <g>
    <path d="M1473.5,63h-9c-2.49,0-4.5-2.01-4.5-4.5v-18c0-2.49-2.01-4.5-4.5-4.5h-27c-2.49,0-4.5,2.01-4.5,4.5v18c0,2.49-2.01,4.5-4.5,4.5h-63c-2.49,0-4.5,2.01-4.5,4.5v27c0,2.49,2.01,4.5,4.5,4.5h63c2.49,0,4.5,2.01,4.5,4.5v72c0,2.49,2.01,4.5,4.5,4.5h27c2.49,0,4.5-2.01,4.5-4.5v-72c0-2.49,2.01-4.5,4.5-4.5h9c2.49,0,4.5-2.01,4.5-4.5v-27c0-2.49-2.01-4.5-4.5-4.5Z"/>
    <path d="M1365.5,144h-9c-2.49,0-4.5,2.01-4.5,4.5v27c0,2.49,2.01,4.5,4.5,4.5h45c2.49,0,4.5-2.01,4.5-4.5v-63c0-2.49-2.01-4.5-4.5-4.5h-27c-2.49,0-4.5,2.01-4.5,4.5v27c0,2.49-2.01,4.5-4.5,4.5Z"/>
  </g>
  <polygon points="668 198 668 216 677 216 677 207 695 207 695 198 668 198"/>
  <polygon points="686 225 668 225 668 234 695 234 695 216 686 216 686 225"/>
  <polygon points="704 198 704 207 713 207 713 234 722 234 722 207 731 207 731 198 704 198"/>
  <rect x="812" y="198" width="9" height="36"/>
  <path d="M830,198v36h27v-36h-27ZM848,225h-9v-18h9v18Z"/>
  <polygon points="740 198 740 234 767 234 767 198 758 198 758 225 749 225 749 198 740 198"/>
  <polygon points="776 198 776 234 794 234 794 225 785 225 785 207 794 207 794 198 776 198"/>
  <rect x="794" y="207" width="9" height="18"/>
  <polygon points="875 207 875 216 884 216 884 234 893 234 893 225 902 225 902 234 911 234 911 216 920 216 920 207 902 207 902 198 893 198 893 207 875 207"/>
  <polygon points="920 207 920 216 929 216 929 234 938 234 938 225 947 225 947 234 956 234 956 216 965 216 965 207 947 207 947 198 938 198 938 207 920 207"/>
  <polygon points="965 207 965 216 974 216 974 234 983 234 983 225 992 225 992 234 1001 234 1001 216 1010 216 1010 207 992 207 992 198 983 198 983 207 965 207"/>
  <rect x="641" y="234" width="18" height="9"/>
</svg>