<?xml version="1.0" encoding="utf-8"?>
<!-- Generator: Adobe Illustrator 27.7.0, SVG Export Plug-In . SVG Version: 6.00 Build 0)  -->
<svg version="1.1" id="レイヤー_1" xmlns="http://www.w3.org/2000/svg" xmlns:xlink="http://www.w3.org/1999/xlink" x="0px"
	 y="0px" viewBox="0 0 720 720" style="enable-background:new 0 0 720 720;" xml:space="preserve">
<g>
	<path d="M101.3,263.1c18.75,0,37.51-0.02,56.26,0.01c11.81,0.01,23.63,0.09,35.44,0.12c6.06,0.02,8.54-1.86,10.4-7.64
		c18.75-58.2,37.51-116.39,56.28-174.59c1.31-4.05,4.15-6.28,7.98-6.33c3.82-0.05,6.88,2.27,8.21,6.33
		c14.58,44.53,29.14,89.06,43.71,133.59c4.58,14.01,9.18,28.02,13.8,42.02c1.27,3.86,4.19,5.95,8.25,5.98
		c8.22,0.06,16.44,0.11,24.65,0.13c30.44,0.05,60.88,0.09,91.32,0.13c22.86,0.04,45.72,0.08,68.58,0.13
		c4.31,0.01,7.41,2.08,8.64,5.76c1.23,3.67-0.03,7.2-3.54,9.73c-49.3,35.55-98.6,71.1-147.9,106.65c-2.09,1.5-4.51,2.85-5.07,5.54
		c-0.4,1.92-0.52,4.15,0.06,5.98c6.4,20.09,12.95,40.13,19.48,60.19c12.63,38.82,25.28,77.64,37.92,116.47
		c1.33,4.08,0.26,7.63-2.95,9.92c-3.14,2.24-6.76,2.07-10.34-0.5c-50.09-35.98-100.19-71.97-150.28-107.95
		c-4.28-3.08-7.53-3.09-11.79,0.02c-48.99,35.76-98,71.5-146.93,107.34c-5.27,3.86-10.43,2.02-12.73-1.27
		c-1.66-2.37-1.93-4.9-1.01-7.68c6.01-18.26,11.95-36.55,17.94-54.82c13.15-40.14,26.31-80.28,39.46-120.42
		c1.45-4.42,0.27-7.77-3.74-10.69c-49.66-36.14-99.33-72.29-149-108.43c-4.13-3-5.43-6.84-3.58-10.8c1.5-3.22,4.05-4.89,7.62-4.9
		c5.52-0.02,11.05-0.01,16.57-0.01C50.44,263.1,75.87,263.1,101.3,263.1z M193.27,312.17c-11.95,0-23.89,0.02-35.84-0.02
		c-2.23-0.01-4.17,0.6-5.81,2.1c-4.14,3.81-3.65,9.96,1.13,13.44c19.14,13.95,38.3,27.88,57.45,41.82c3.86,2.81,4.9,5.98,3.46,10.4
		c-7.29,22.3-14.59,44.59-21.88,66.89c-1.38,4.23-0.36,7.84,2.83,10.14c3.25,2.35,6.94,2.22,10.51-0.39
		c18.56-13.55,37.12-27.1,55.67-40.66c4.79-3.5,7.66-3.5,12.54,0.01c19.02,13.68,38.05,27.34,57.08,41.01
		c3.64,2.61,7.32,2.74,10.53,0.42c3.19-2.31,4.22-5.93,2.85-10.12c-7.32-22.49-14.63-44.98-21.95-67.48
		c-1.56-4.8-0.54-7.94,3.53-10.88c19.05-13.74,38.11-27.48,57.15-41.24c3.56-2.57,4.74-6.08,3.45-9.93
		c-1.22-3.61-4.24-5.63-8.48-5.66c-7-0.05-14-0.11-21-0.12c-16.44-0.04-32.88-0.05-49.32-0.07c-5.09-0.01-7.69-1.85-9.27-6.68
		c-7.31-22.29-14.61-44.59-21.95-66.87c-0.41-1.25-1-2.55-1.85-3.54c-4.28-4.97-12.34-3.27-14.38,3.02
		c-7.31,22.56-14.57,45.14-21.86,67.71c-1.5,4.63-4.28,6.67-9.13,6.67C216.91,312.17,205.09,312.17,193.27,312.17z"/>
	<path d="M677.06,323.02c11.24,0,22.48,0,33.72,0c4.51,0,7.53,2,8.77,5.79c1.24,3.79-0.03,7.14-3.73,9.82
		c-38.63,27.86-77.26,55.72-115.89,83.57c-11.09,8-22.18,15.99-33.27,23.99c-3.87,2.8-5.04,6.19-3.61,10.57
		c15.25,46.87,30.51,93.75,45.76,140.62c3.91,12.01,7.81,24.02,11.69,36.03c1.3,4.03,0.27,7.46-2.86,9.75
		c-3.11,2.28-6.7,2.21-10.16-0.27c-18.62-13.36-37.23-26.72-55.82-40.13c-0.67-0.49-1.15-1.43-1.42-2.26
		c-2.3-7.27-4.46-14.58-6.81-21.83c-13.99-43.1-28.02-86.19-42.04-129.29c-2.04-6.28-4.04-12.57-6.17-18.82
		c-0.46-1.36-0.16-2,0.96-2.8c46.35-33.39,92.69-66.8,139.02-100.22c0.78-0.56,1.68-1.04,2.29-1.75c2.14-2.5,4.75-2.99,7.98-2.91
		c10.53,0.23,21.06,0.09,31.6,0.09C677.06,322.98,677.06,323,677.06,323.02z"/>
	<path d="M585.2,292.39c10.47,0,20.93-0.01,31.4,0c4.39,0,7.38,2.02,8.6,5.74c1.23,3.75,0.02,7.14-3.54,9.71
		c-35.71,25.76-71.42,51.51-107.13,77.27c-14.06,10.14-28.11,20.27-42.17,30.41c-3.99,2.88-5.09,6.16-3.55,10.91
		c6.81,20.97,13.65,41.93,20.47,62.9c12.31,37.85,24.63,75.7,36.93,113.55c1.24,3.82,0.15,7.37-2.87,9.6
		c-3.05,2.25-6.74,2.26-10.02-0.1c-17.37-12.45-34.73-24.92-52.07-37.41c-0.47-0.34-0.93-0.89-1.09-1.43
		c-2.03-6.94-3.81-13.96-6.03-20.83c-13.25-40.98-26.6-81.93-39.92-122.9c-3.09-9.51-6.14-19.03-9.33-28.51
		c-0.49-1.47-0.2-2.12,0.96-2.96c37.45-26.97,74.87-53.97,112.3-80.96c9.11-6.57,18.23-13.12,27.32-19.73
		c1.6-1.17,3.18-2.43,4.51-3.88c1.1-1.21,2.22-1.63,3.82-1.62c10.47,0.07,20.93,0.03,31.4,0.03
		C585.2,292.26,585.2,292.32,585.2,292.39z"/>
	<path d="M408.34,238.95c-4.35,0-8.32,0.01-12.29,0c-13.67-0.04-27.34-0.12-41.02-0.08c-1.73,0-2.55-0.4-3.12-2.15
		c-6.94-21.46-13.98-42.89-20.95-64.33c-0.25-0.78-0.27-1.79-0.03-2.57c6.35-19.9,12.75-39.78,19.16-59.66
		c1.24-3.84,4.23-6.05,7.98-6.07c3.89-0.02,6.78,2.13,8.1,6.14c12.95,39.51,25.89,79.03,38.84,118.55
		C406.1,232.04,407.16,235.32,408.34,238.95z"/>
	<path d="M311.73,532.66c-7.1,5.19-13.98,10.22-20.87,15.24c-29.07,21.22-58.13,42.45-87.2,63.67c-4.26,3.11-8.48,2.92-11.77-0.51
		c-2.25-2.35-2.84-5.14-1.86-8.19c2.71-8.42,5.49-16.81,8.24-25.21c3.82-11.69,7.62-23.39,11.51-35.06c0.33-1,1.11-2.03,1.96-2.65
		c17.68-12.99,35.41-25.91,53.12-38.88c0.96-0.7,1.63-1.05,2.81-0.2c14.34,10.38,28.74,20.69,43.12,31.02
		C311.04,532.08,311.28,532.29,311.73,532.66z"/>
	<path d="M492.64,239.01c-1.62,0-3.02,0-4.42,0c-17.59-0.02-35.19-0.06-52.78-0.03c-1.46,0-2.14-0.4-2.59-1.81
		c-3.03-9.46-6.19-18.88-9.2-28.34c-0.34-1.06-0.32-2.43,0.03-3.49c6.83-21.37,13.74-42.71,20.63-64.05
		c1.37-4.25,4.32-6.63,8.19-6.63c3.85,0,6.8,2.42,8.19,6.65c10.43,31.86,20.87,63.71,31.3,95.57
		C492.21,237.52,492.39,238.19,492.64,239.01z"/>
	<path d="M332.28,547.34c15.99,11.49,31.98,22.97,48.11,34.57c-0.51,0.44-0.86,0.79-1.25,1.08c-27.11,19.8-54.21,39.6-81.33,59.38
		c-3.79,2.77-7.79,2.78-10.93,0.01c-2.87-2.53-3.57-5.68-2.41-9.26c3.74-11.45,7.5-22.9,11.25-34.35
		c3.39-10.35,6.78-20.71,10.22-31.05c0.28-0.85,0.81-1.79,1.51-2.31c8-5.92,16.05-11.76,24.08-17.63
		C331.75,547.64,331.97,547.52,332.28,547.34z"/>
</g>
</svg>
