<?xml version="1.0" encoding="UTF-8"?><svg id="_レイヤー_2" xmlns="http://www.w3.org/2000/svg" viewBox="0 0 1074.35 236.52"><defs><style>.cls-1{fill:#ff997d;}.cls-2{fill:#02968c;}</style></defs><g id="logo_full"><g id="full_green"><g><g><path class="cls-2" d="M564.24,169.13c0,3.56,.47,6.17,1.41,7.83,.94,1.66,2.66,2.82,5.17,3.47,2.51,.65,6.4,.98,11.66,.98,.5,0,.75,.36,.75,1.07s-.25,1.07-.75,1.07h-40.62c-.38,0-.56-.36-.56-1.07s.19-1.07,.56-1.07c3.39,0,5.89-.33,7.52-.98,1.63-.65,2.73-1.81,3.29-3.47,.56-1.66,.85-4.27,.85-7.83v-35.23c0-4.03-.5-6.94-1.5-8.72-1-1.78-2.7-2.67-5.08-2.67-2.01,0-5.39,.89-10.16,2.67h-.38c-.5,0-.85-.27-1.03-.8-.19-.53-.03-.92,.47-1.16l21.82-9.79c.25-.12,.63-.18,1.13-.18,1.13,0,2.32,1.37,3.57,4.09,1.25,2.73,1.88,6.23,1.88,10.5v41.28Z"/><path class="cls-2" d="M860.2,172.82c.47,0,.8,.27,.98,.8,.18,.53,.03,.86-.45,.98l-20.67,9.98c-.24,.12-.54,.18-.89,.18-1.07,0-2.11-1.4-3.12-4.19-1.01-2.79-1.58-6.33-1.69-10.6-4.4,4.52-8.85,8.14-13.37,10.87-4.52,2.73-9.45,4.1-14.79,4.1-7.25,0-13.34-2.67-18.27-8.02-4.93-5.35-7.4-12.83-7.4-22.46,0-8.55,2.02-16.04,6.06-22.46,4.04-6.42,9.12-11.34,15.24-14.79,6.12-3.44,12.27-5.17,18.45-5.17,6.65,0,12.41,1.78,17.29,5.35,2.14-1.19,3.8-2.73,4.99-4.63,.12-.24,.41-.27,.89-.09,.47,.18,.71,.39,.71,.62v50.79c0,4.04,.47,6.92,1.43,8.64,.95,1.72,2.55,2.58,4.81,2.58,2.02,0,5.17-.83,9.45-2.5h.36Zm-36.35,3.26c3.62-2.2,7.22-5.08,10.78-8.64v-36.36c0-5.07-2.53-9.12-7.6-12.14-3.19-1.9-6.86-2.95-10.58-3.01-7.17-.11-12.97,3.01-17.37,9.35-4.34,6.24-6.5,14.35-6.5,24.33,0,8.91,1.81,16.1,5.44,21.56,3.62,5.47,8.46,8.2,14.52,8.2,3.92,0,7.69-1.1,11.32-3.3Z"/><path class="cls-2" d="M867.48,182.68c0-.71,.11-1.07,.34-1.07,3.06,0,5.36-.33,6.89-.98,1.53-.65,2.58-1.84,3.15-3.56,.57-1.72,.85-4.3,.85-7.75v-33.33c0-4.28-.43-7.37-1.28-9.27-.85-1.9-2.3-2.85-4.34-2.85s-4.59,.83-7.66,2.5h-.17c-.45,0-.8-.3-1.02-.89-.23-.59-.17-1.01,.17-1.25l22.12-10.69,.68-.18c.23,0,.51,.15,.85,.45,.34,.3,.51,.62,.51,.98,0,.83-.06,3.21-.17,7.13-.11,3.92-.17,8.55-.17,13.9v33.5c0,3.56,.28,6.18,.85,7.84,.57,1.67,1.59,2.82,3.06,3.48,1.47,.65,3.74,.98,6.81,.98,.34,0,.51,.36,.51,1.07s-.17,1.07-.51,1.07c-2.61,0-4.71-.06-6.3-.18l-9.19-.18-9.19,.18c-1.59,.12-3.74,.18-6.47,.18-.23,0-.34-.36-.34-1.07Z"/><path id="i_star" class="cls-1" d="M882.01,80.26l.75,3.23c1.13,4.9,4.39,8.73,8.56,10.06l2.75,.88c.27,.09,.27,.53,0,.62l-2.75,.88c-4.17,1.33-7.43,5.16-8.56,10.06l-.75,3.23c-.07,.32-.45,.32-.53,0l-.75-3.23c-1.13-4.9-4.39-8.73-8.56-10.06l-2.75-.88c-.27-.09-.27-.53,0-.62l2.75-.88c4.17-1.33,7.43-5.16,8.56-10.06l.75-3.23c.07-.32,.45-.32,.53,0Z"/><path class="cls-2" d="M933.5,130.9v38.49c0,3.58,.28,6.21,.85,7.88,.56,1.67,1.66,2.84,3.29,3.49,1.63,.66,4.14,.98,7.52,.98,.38,0,.56,.36,.56,1.07s-.19,1.07-.56,1.07c-2.89,0-5.14-.06-6.77-.18l-10.16-.18-10.34,.18c-1.63,.12-3.89,.18-6.77,.18-.38,0-.56-.36-.56-1.07s.19-1.07,.56-1.07c3.39,0,5.89-.33,7.52-.98,1.63-.66,2.73-1.82,3.29-3.49,.56-1.67,.85-4.3,.85-7.88v-35.45c0-4.06-.5-6.98-1.5-8.77-1.01-1.79-2.7-2.69-5.08-2.69-2.01,0-5.39,.9-10.16,2.69h-.38c-.5,0-.85-.27-1.03-.81-.19-.54-.03-.92,.47-1.16l21.82-9.85c.25-.12,.63-.18,1.13-.18,1.13,0,2.32,1.37,3.57,4.12,1.25,2.75,1.88,6.27,1.88,10.56v3.04Z"/></g><path class="cls-2" d="M209.58,40.54l1.72,7.46c2.61,11.31,10.13,20.15,19.75,23.21l6.35,2.02c.62,.2,.62,1.23,0,1.43l-6.35,2.02c-9.62,3.07-17.14,11.9-19.75,23.21l-1.72,7.46c-.17,.73-1.05,.73-1.22,0l-1.72-7.46c-2.61-11.31-10.13-20.15-19.75-23.21l-6.35-2.02c-.62-.2-.62-1.23,0-1.43l6.35-2.02c9.62-3.07,17.14-11.9,19.75-23.21l1.72-7.46c.17-.73,1.05-.73,1.22,0Z"/><path class="cls-1" d="M230.43,101.59l.75,3.23c1.13,4.9,4.39,8.73,8.56,10.06l2.75,.88c.27,.09,.27,.53,0,.62l-2.75,.88c-4.17,1.33-7.43,5.16-8.56,10.06l-.75,3.23c-.07,.32-.45,.32-.53,0l-.75-3.23c-1.13-4.9-4.39-8.73-8.56-10.06l-2.75-.88c-.27-.09-.27-.53,0-.62l2.75-.88c4.17-1.33,7.43-5.16,8.56-10.06l.75-3.23c.07-.32,.45-.32,.53,0Z"/><path class="cls-2" d="M662.85,166.72c-7.83,8.83-25.06,16.28-33.68,5.88-7.57-8.56-1.44-48.58-4.37-59.08-.71-2.06-20.57,8.68-21.65,8.64-1.08,.46-.08,2.39,.89,2.14,21.97-12.84,3.82,46.46,16.31,54.98,12.42,12.26,32.29,2.95,42.5-9.53"/><path class="cls-2" d="M671.55,208.62c3-5.98,1-85.77,1.54-94.11-.06-1.15-1.54-1.68-2.5-1.25-.22,.72-22.07,8.55-20.05,10.16,2.03,2.88,8.37-5.05,11.32,2.23,2.37,5.54,.83,34.37,1.25,41.08v3.03c-.06,4.67,.17,32.69-.2,36.7-11-2.39-21.88-6.64-33.26-6.45-35.78,2.88-19.55,33.67,7.61,32.64,9.47,.86,32.57-6.13,34.07-23.19,71.15,21.81,148.38,31.84,223.2,24.85,52.47-4.9,103.75-18.17,150.91-41.63-117.34,50.41-251.1,50.87-373.89,15.93Zm-20.35,19c-51.1,15.86-62.86-45.46,11.41-20.42-.57,7.47-.69,16.85-11.41,20.42Z"/><path class="cls-2" d="M501.9,123.9c-.81,.95,.16,2.33,1.32,1.89,4.39-1.69,11.37-3.36,17.76-.49,2,.9,3.6,1.25,4.82,1.2l-52.63,44.66c-.89,.75-2.53,1.65-3.65,1.99h-.01c-10.15,4.27-16.82,3.45-16.04-8.73,0,0,0-50.79,0-50.79-1.74-2.46-4,3.69-6.59,4.1-24.42-16.85-58.71,8.59-57.03,37.07-.31,34.62,34.55,39.02,53.82,15.51,.46,5.12,.7,14.82,5.7,14.61l19.04-9.19c1.18-.57,2.29-1.29,3.29-2.14,0,0,56.28-47.8,56.38-47.88,4.61-4.08-8.45-22.49-26.17-1.8Zm-59.15,43.54c-3.56,3.56-7.16,6.45-10.78,8.64-30.23,16.92-38.84-33.18-24.77-50.79,8.08-14.6,34.8-11.27,35.55,5.79v36.36Z"/><path class="cls-2" d="M566.41,123.88c-.8,.94,.15,2.35,1.31,1.91,4.39-1.69,11.37-3.36,17.75-.49,1.9,.85,3.43,1.21,4.63,1.21l-70.36,53.89c-.69,.53-2.83,.77-2.83,.77h1.26c-5.27,0-9.15-.32-11.66-.97-2.51-.65-4.23-1.8-5.17-3.45-.94-1.65-1.41-4.25-1.41-7.8v-41.1c0-4.25-.63-7.73-1.88-10.45-1.26-2.72-2.45-4.08-3.57-4.08-.5,0-.88,.06-1.13,.18l-21.82,9.74c-.5,.24-.66,.62-.47,1.15,.19,.53,.53,.8,1.03,.8h.38c4.76-1.77,8.15-2.66,10.16-2.66,2.38,0,4.07,.89,5.08,2.66,1,1.77,1.5,4.67,1.5,8.68v35.18s-.02,6.18-.55,7.84c-.53,1.67-1.58,2.82-3.12,3.48-1.55,.65-3.92,.98-7.13,.98-.36,0-.54,.36-.54,1.07s.18,1.07,.54,1.07c2.73,0,35.21-.03,37.44-.04,.92,0,1.8-.31,2.52-.87l73.98-56.69c.06-.04-.08,.06,0,0,4.96-3.98-7.94-22.99-25.93-2Z"/><path class="cls-2" d="M673.98,86.04c-25.77-7.31-52.21-12.06-78.78-15.34-26.57-3.38-53.34-4.99-80.1-5.67-26.74-.73-53.64-.14-80.27,3.14-26.59,3.36-52.98,9.24-77.96,19.05-12.49,4.86-24.57,10.76-36.13,17.53-8.78,5.16-17.21,10.91-25.29,17.1-8.28-4.85-16.45-9.78-21.39-17.24-17.39-38.1,37.74-44.82,42.06-7.13,.07,.9,2.04,1.01,1.96,0l-1.25-20.49c0-1.43-.89-2.43-2.67-3.03-20.33-9.53-53.96-3.52-54,23.52-.53,15.98,12.9,24.42,25.68,32.11-4.43,3.7-8.8,7.48-13.08,11.36l-14.8,13.53c-5.31,4.84-10.66,9.65-16.38,13.97h0c-1.66-.65-3.32-1.29-4.98-1.91-6.31-2.29-12.73-4.28-19.26-5.82-3.25-.81-6.53-1.55-9.86-2.05-3.32-.52-6.67-.92-10.06-.98-3.38-.09-6.81,.08-10.18,.94-1.68,.44-3.35,1.04-4.89,1.97-1.54,.92-2.96,2.17-3.97,3.77-.49,.8-.91,1.65-1.18,2.55-.3,.89-.45,1.95-.37,2.94,.16,2,.99,3.8,2.06,5.3,2.15,3.03,5.14,5.11,8.23,6.75,6.25,3.21,13.38,4.46,20.27,3.98,6.93-.34,13.67-2.52,19.66-5.71,5.18-2.76,9.88-6.2,14.33-9.87,1.26,.58,14.32,8.04,27.51,12.45,31.43,10.52,66.72-8.11,50.15-41.87-5.1-8.26-14.09-13.46-23.03-18.69,8.07-6.02,16.48-11.59,25.22-16.58,11.58-6.62,23.7-12.27,36.2-16.89,25-9.29,51.26-14.78,77.72-17.72,13.23-1.54,26.54-2.41,39.86-2.8,6.66-.19,13.32-.26,19.99-.21l10.01,.05,10.01,.18c13.34,.3,26.67,.85,39.98,1.71,13.31,.92,26.6,2.04,39.86,3.51,26.5,2.98,52.9,7.26,78.8,13.74,.31,.08,.63-.1,.72-.41,.09-.31-.09-.64-.41-.73ZM226.05,178.52c-2.97,1.37-6.04,2.51-9.19,3.28-3.15,.76-6.36,1.18-9.58,1.28-.8,.05-1.61,.04-2.42,0-.81-.02-1.61-.02-2.41-.09-1.6-.12-3.18-.34-4.75-.64-3.14-.58-6.21-1.58-9.06-2.96-2.84-1.36-5.5-3.2-7.4-5.52-.94-1.16-1.6-2.48-1.79-3.82-.08-.68-.04-1.31,.15-2.01,.17-.72,.46-1.39,.81-2.03,1.43-2.6,4.33-4.25,7.37-5.19,3.08-.95,6.38-1.31,9.67-1.36,6.61-.05,13.23,1.07,19.66,2.75,6.45,1.65,12.8,3.7,18.95,6.24,1.32,.54,2.62,1.1,3.93,1.67-4.41,3.24-9.04,6.15-13.94,8.41Zm79.13-.66c-10.48,4.17-22.04,5.68-37.53,.92-12.98-3.99-23.68-8.93-24.69-9.33,.21-.17,.42-.35,.62-.52,2.55-2.18,5.05-4.41,7.5-6.69,2.47-2.26,4.9-4.55,7.33-6.85,4.84-4.61,9.65-9.24,14.63-13.7,4.32-3.9,8.71-7.73,13.22-11.4,4.62,2.77,9.13,5.46,12.85,8.37,11.81,7.52,19.89,33.7,6.06,39.21Z"/><path class="cls-2" d="M1016.45,135.13l.7,3.24c1.06,4.92,4.26,8.79,8.41,10.18l2.74,.92c.27,.09,.26,.54,0,.62l-2.76,.84c-4.19,1.27-7.5,5.05-8.7,9.93l-.79,3.22c-.08,.31-.46,.31-.53,0l-.7-3.24c-1.06-4.92-4.26-8.79-8.41-10.18l-2.74-.92c-.27-.09-.26-.54,0-.62l2.76-.84c4.19-1.27,7.5-5.05,8.7-9.93l.79-3.22c.08-.31,.46-.31,.53,0Z"/><path class="cls-2" d="M1046.06,82.45l1.72,7.46c2.61,11.31,10.13,20.15,19.75,23.21l6.35,2.02c.62,.2,.62,1.23,0,1.43l-6.35,2.02c-9.62,3.07-17.14,11.9-19.75,23.21l-1.72,7.46c-.17,.73-1.05,.73-1.22,0l-1.72-7.46c-2.61-11.31-10.13-20.15-19.75-23.21l-6.35-2.02c-.62-.2-.62-1.23,0-1.43l6.35-2.02c9.62-3.07,17.14-11.9,19.75-23.21l1.72-7.46c.17-.73,1.05-.73,1.22,0Z"/><path class="cls-1" d="M1061.52,154.32l.53,2.31c.81,3.5,3.14,6.24,6.12,7.19l1.97,.63c.19,.06,.19,.38,0,.44l-1.97,.63c-2.98,.95-5.31,3.69-6.12,7.19l-.53,2.31c-.05,.23-.32,.23-.38,0l-.53-2.31c-.81-3.5-3.14-6.24-6.12-7.19l-1.97-.63c-.19-.06-.19-.38,0-.44l1.97-.63c2.98-.95,5.31-3.69,6.12-7.19l.53-2.31c.05-.23,.32-.23,.38,0Z"/><path class="cls-1" d="M537.24,84.39l.53,2.31c.81,3.5,3.14,6.24,6.12,7.19l1.97,.63c.19,.06,.19,.38,0,.44l-1.97,.63c-2.98,.95-5.31,3.69-6.12,7.19l-.53,2.31c-.05,.23-.32,.23-.38,0l-.53-2.31c-.81-3.5-3.14-6.24-6.12-7.19l-1.97-.63c-.19-.06-.19-.38,0-.44l1.97-.63c2.98-.95,5.31-3.69,6.12-7.19l.53-2.31c.05-.23,.32-.23,.38,0Z"/><path class="cls-2" d="M624.65,50.8l.37,1.6c.56,2.42,2.16,4.31,4.22,4.96l1.36,.43c.13,.04,.13,.26,0,.31l-1.36,.43c-2.06,.66-3.66,2.54-4.22,4.96l-.37,1.6c-.04,.16-.22,.16-.26,0l-.37-1.6c-.56-2.42-2.16-4.31-4.22-4.96l-1.36-.43c-.13-.04-.13-.26,0-.31l1.36-.43c2.06-.66,3.66-2.54,4.22-4.96l.37-1.6c.04-.16,.22-.16,.26,0Z"/><path class="cls-2" d="M456.64,76.14l.29,1.25c.44,1.89,1.7,3.37,3.31,3.89l1.06,.34c.1,.03,.1,.21,0,.24l-1.06,.34c-1.61,.51-2.87,1.99-3.31,3.89l-.29,1.25c-.03,.12-.18,.12-.2,0l-.29-1.25c-.44-1.89-1.7-3.37-3.31-3.89l-1.06-.34c-.1-.03-.1-.21,0-.24l1.06-.34c1.61-.51,2.87-1.99,3.31-3.89l.29-1.25c.03-.12,.18-.12,.2,0Z"/><path class="cls-2" d="M185.85,112.93l.75,3.23c1.13,4.9,4.39,8.73,8.56,10.06l2.75,.88c.27,.09,.27,.53,0,.62l-2.75,.88c-4.17,1.33-7.43,5.16-8.56,10.06l-.75,3.23c-.07,.32-.45,.32-.53,0l-.75-3.23c-1.13-4.9-4.39-8.73-8.56-10.06l-2.75-.88c-.27-.09-.27-.53,0-.62l2.75-.88c4.17-1.33,7.43-5.16,8.56-10.06l.75-3.23c.07-.32,.45-.32,.53,0Z"/><path class="cls-2" d="M414.04,147.66c-11.89,9.04-36.71,27.13-37.03,27.39-6.02,4.96-18.13,6.34-23.81,.77-2.44-2.38-3.65-6-3.37-10.87v-42.8c-.28-.86,.44-1.56,1.3-1.53,7.9,.27,14.74,1.05,20.52,2.34,.94,.21,1.47,1.21,1.08,2.1-1.28,2.97-3.19,7.63-3.19,9.15,0,2.3,1.78,4.16,3.97,4.16s3.97-1.86,3.97-4.16c-.03-1.17-.9-4.12-1.81-6.77-.7-2.06-.89-4.29-.35-6.4,.41-1.6,.25-3.46-.21-4.82-.3-.89-.57-1.34-.8-1.34-9.67,.98-17.4,1.56-23.2,1.74-.87,.03-1.58-.67-1.29-1.53v-11.62c-.13-.77-3.18-.66-2.96,0-1,8.64-8.01,13.42-16.75,13.54-.96-.16-.96,2.48,0,2.32,2.85,0,4.87,.21,6.06,.62,3.31,1.39,2.82,4.86,2.93,9.18v41.88c.1,5.23,1.71,8.97,4.91,11.23,5.91,4.31,16.21,4.25,23.26,1.25,3.3-1.34,7.01-3.59,11.1-6.73,.32-.24,51.32-40.55,72.1-56.93l-36.44,27.84Z"/><path class="cls-2" d="M979.11,176.88c.54,1.67,1.57,2.82,3.12,3.48,1.54,.65,3.92,.98,7.13,.98,.36,0,.53,.36,.53,1.07s-.18,1.07-.53,1.07c-2.73,0-4.87-.06-6.42-.18l-9.62-.18-9.8,.18c-1.55,.12-3.68,.18-6.42,.18-.36,0-.53-.36-.53-1.07s.18-1.07,.53-1.07c3.21,0,5.58-.33,7.13-.98,1.54-.65,2.58-1.81,3.12-3.48,.53-1.66,.77-5.52,.79-7.37,.06-5.19,.02-28.54,.02-29.33,0-.02,0-.03,0-.04,1.6-21-16.69-24.42-30.16-16.14-1.22,.75-2.53-.84-1.52-1.85,1.7-1.7,3.77-3.38,6.28-4.79,9.02-5.11,22.76-6.46,30.21,.53,4.54,4.26,5.89,10.27,5.97,23.96,.06,10.62-.17,21.3-.2,27.11-.02,4.16-.17,6.26,.37,7.92Z"/><g><path class="cls-2" d="M288.77,207.02c-.3-.33-.72-.72-1.3-1.02-.65-.33-1.23-.45-1.88-.45-1.45,0-2.72,.55-3.62,1.45-.9,.92-1.45,2.22-1.45,3.57s.55,2.35,1.17,3c.8,.83,1.73,1.15,2.8,1.15,.85,0,1.57-.18,2.12-.47,.45-.23,1.02-.63,1.4-.98l-.18,1.53c-.43,.3-1.02,.63-1.42,.78-.5,.18-1.3,.3-2,.3-1.63,0-2.89-.55-3.79-1.47-1.02-1.03-1.4-2.3-1.4-3.72,0-2.45,1.13-3.92,1.87-4.64,1.33-1.3,2.87-1.68,4.5-1.68,.63,0,1.47,.08,2.18,.38,.35,.15,.82,.43,1.18,.72l-.18,1.53Z"/><path class="cls-2" d="M300.63,204.57c.92,0,1.97,.05,2.79,.82,.65,.6,.8,1.33,.8,1.98,0,.88-.2,1.72-.88,2.37-.6,.58-1.52,.92-2.33,.98l2.92,4.97h-1.5l-2.79-4.87h-.32l-.6,4.87h-1.23l1.37-11.12h1.78Zm-1.18,5.15h.78c.52,0,1.45-.03,2.07-.58,.33-.3,.65-.85,.65-1.58,0-.85-.42-1.3-.75-1.5-.33-.2-1.07-.32-1.57-.32h-.7l-.48,3.99Z"/><path class="cls-2" d="M320.39,205.74h-4.54l-.4,3.3h4.4l-.15,1.17h-4.4l-.52,4.32h4.54l-.15,1.17h-5.77l1.37-11.12h5.77l-.15,1.17Z"/><path class="cls-2" d="M335.5,212.56h-4.74l-1.72,3.14h-1.4l6.55-11.66,3.55,11.66h-1.33l-.92-3.14Zm-.33-1.17l-1.33-4.45-2.43,4.45h3.77Z"/><path class="cls-2" d="M349.89,205.74l-1.22,9.96h-1.23l1.22-9.96h-2.7l.15-1.17h6.64l-.15,1.17h-2.7Z"/><path class="cls-2" d="M361.48,214.44c-.68-.7-1.43-1.9-1.43-3.69,0-2.29,1-3.77,1.9-4.62,1.22-1.17,2.72-1.75,4.57-1.75,1.22,0,2.58,.27,3.74,1.4,.72,.7,1.47,1.87,1.47,3.64s-.62,3.5-1.87,4.72c-.97,.93-2.55,1.75-4.67,1.75-1.22,0-2.6-.32-3.7-1.45Zm1.38-7.57c-.78,.73-1.53,1.95-1.53,3.65,0,1.37,.5,2.4,1.15,3.07,.58,.6,1.48,1.13,2.84,1.13,1.5,0,2.79-.53,3.6-1.33,.98-.95,1.52-2.42,1.52-3.74s-.48-2.28-1.17-2.97c-.55-.55-1.47-1.13-2.89-1.13s-2.65,.52-3.52,1.32Z"/><path class="cls-2" d="M383.96,204.57c.92,0,1.97,.05,2.79,.82,.65,.6,.8,1.33,.8,1.98,0,.88-.2,1.72-.88,2.37-.6,.58-1.52,.92-2.33,.98l2.92,4.97h-1.5l-2.79-4.87h-.32l-.6,4.87h-1.23l1.37-11.12h1.78Zm-1.18,5.15h.78c.52,0,1.45-.03,2.07-.58,.33-.3,.65-.85,.65-1.58,0-.85-.42-1.3-.75-1.5s-1.07-.32-1.57-.32h-.7l-.48,3.99Z"/><path class="cls-2" d="M411.51,204.57c1.13,0,2.12,.3,2.69,.85,.45,.43,.77,1.17,.77,2.1,0,1.08-.42,1.9-.9,2.37-.47,.45-1.37,.97-3.15,.97h-.95l-.6,4.84h-1.23l1.37-11.12h2.02Zm-1.42,5.12h1.05c.6,0,1.42-.07,2-.6,.33-.3,.6-.8,.6-1.53s-.3-1.18-.62-1.42c-.45-.35-1.13-.4-1.63-.4h-.92l-.48,3.95Z"/><path class="cls-2" d="M426.4,204.57c.92,0,1.97,.05,2.79,.82,.65,.6,.8,1.33,.8,1.98,0,.88-.2,1.72-.88,2.37-.6,.58-1.52,.92-2.33,.98l2.92,4.97h-1.5l-2.79-4.87h-.32l-.6,4.87h-1.23l1.37-11.12h1.78Zm-1.18,5.15h.78c.52,0,1.45-.03,2.07-.58,.33-.3,.65-.85,.65-1.58,0-.85-.42-1.3-.75-1.5s-1.07-.32-1.57-.32h-.7l-.48,3.99Z"/><path class="cls-2" d="M440.69,214.44c-.68-.7-1.43-1.9-1.43-3.69,0-2.29,1-3.77,1.9-4.62,1.22-1.17,2.72-1.75,4.57-1.75,1.22,0,2.58,.27,3.74,1.4,.72,.7,1.47,1.87,1.47,3.64s-.62,3.5-1.87,4.72c-.97,.93-2.55,1.75-4.67,1.75-1.22,0-2.6-.32-3.7-1.45Zm1.38-7.57c-.78,.73-1.53,1.95-1.53,3.65,0,1.37,.5,2.4,1.15,3.07,.58,.6,1.48,1.13,2.84,1.13,1.5,0,2.79-.53,3.6-1.33,.98-.95,1.52-2.42,1.52-3.74s-.48-2.28-1.17-2.97c-.55-.55-1.47-1.13-2.89-1.13s-2.65,.52-3.52,1.32Z"/><path class="cls-2" d="M461.39,204.57h2.02c1.25,0,3.02,.18,4.29,1.38,.68,.67,1.35,1.77,1.35,3.6,0,1.28-.3,3.09-1.62,4.44-1.37,1.4-3.14,1.7-5.25,1.7h-2.15l1.37-11.12Zm.02,9.96h.82c1.82,0,3.22-.3,4.24-1.32,1.12-1.12,1.28-2.69,1.28-3.55s-.18-1.93-1-2.77c-1.03-1.07-2.4-1.15-3.19-1.15h-1.08l-1.07,8.79Z"/><path class="cls-2" d="M479.93,211.11c-.07,.5-.12,.9-.12,1.33,0,.62,.2,1.22,.72,1.68,.58,.53,1.22,.6,1.87,.6,.55,0,1.43-.03,2.1-.78,.63-.72,.75-1.87,.83-2.55l.83-6.82h1.23l-.88,7.15c-.15,1.22-.35,2.27-1.3,3.17-.95,.9-2.07,1-2.95,1-1.03,0-1.95-.2-2.72-.93-.52-.5-.97-1.23-.97-2.3,0-.35,.08-1.38,.12-1.68l.8-6.4h1.23l-.8,6.54Z"/><path class="cls-2" d="M506.05,207.02c-.3-.33-.72-.72-1.3-1.02-.65-.33-1.23-.45-1.88-.45-1.45,0-2.72,.55-3.62,1.45-.9,.92-1.45,2.22-1.45,3.57s.55,2.35,1.17,3c.8,.83,1.73,1.15,2.8,1.15,.85,0,1.57-.18,2.12-.47,.45-.23,1.02-.63,1.4-.98l-.18,1.53c-.43,.3-1.02,.63-1.42,.78-.5,.18-1.3,.3-2,.3-1.63,0-2.89-.55-3.79-1.47-1.02-1.03-1.4-2.3-1.4-3.72,0-2.45,1.13-3.92,1.87-4.64,1.33-1.3,2.87-1.68,4.5-1.68,.63,0,1.47,.08,2.18,.38,.35,.15,.82,.43,1.18,.72l-.18,1.53Z"/><path class="cls-2" d="M518.7,205.74l-1.22,9.96h-1.23l1.22-9.96h-2.7l.15-1.17h6.64l-.15,1.17h-2.7Z"/><path class="cls-2" d="M531.96,204.57l-1.37,11.12h-1.23l1.37-11.12h1.23Z"/><path class="cls-2" d="M542.48,214.44c-.68-.7-1.43-1.9-1.43-3.69,0-2.29,1-3.77,1.9-4.62,1.22-1.17,2.72-1.75,4.57-1.75,1.22,0,2.58,.27,3.74,1.4,.72,.7,1.47,1.87,1.47,3.64s-.62,3.5-1.87,4.72c-.97,.93-2.55,1.75-4.67,1.75-1.22,0-2.6-.32-3.7-1.45Zm1.38-7.57c-.78,.73-1.53,1.95-1.53,3.65,0,1.37,.5,2.4,1.15,3.07,.58,.6,1.48,1.13,2.84,1.13,1.5,0,2.79-.53,3.6-1.33,.98-.95,1.52-2.42,1.52-3.74s-.48-2.28-1.17-2.97c-.55-.55-1.47-1.13-2.89-1.13s-2.65,.52-3.52,1.32Z"/><path class="cls-2" d="M561.81,215.69l1.42-11.59,7.56,9.12,1.07-8.66h1.23l-1.43,11.62-7.56-9.12-1.05,8.62h-1.23Z"/></g><path class="cls-1" d="M593.67,190.75l.53,2.31c.81,3.5,3.14,6.24,6.12,7.19l1.97,.63c.19,.06,.19,.38,0,.44l-1.97,.63c-2.98,.95-5.31,3.69-6.12,7.19l-.53,2.31c-.05,.23-.32,.23-.38,0l-.53-2.31c-.81-3.5-3.14-6.24-6.12-7.19l-1.97-.63c-.19-.06-.19-.38,0-.44l1.97-.63c2.98-.95,5.31-3.69,6.12-7.19l.53-2.31c.05-.23,.32-.23,.38,0Z"/><path class="cls-2" d="M263.39,214.99l.33,1.41c.49,2.14,1.92,3.82,3.74,4.4l1.2,.38c.12,.04,.12,.23,0,.27l-1.2,.38c-1.82,.58-3.25,2.25-3.74,4.4l-.33,1.41c-.03,.14-.2,.14-.23,0l-.33-1.41c-.49-2.14-1.92-3.82-3.74-4.4l-1.2-.38c-.12-.04-.12-.23,0-.27l1.2-.38c1.82-.58,3.25-2.25,3.74-4.4l.33-1.41c.03-.14,.2-.14,.23,0Z"/><path class="cls-2" d="M827,234.94c-32.25-2.09-59.84-81.16-81.33-110.34-.98-1.34-.68-3.24,.72-4.12,14.2-8.92,22.49-31.69,7.6-43.04-10.36-8.46-29.73-5.22-43.66-4.81-2-.02-4.99-.09-8.22-.19-7.05-.21-12.14,5.14-15.54,10.98-4.55,7.81-5.47,18.21,2.68,19.09,.22,.02,.46,.02,.68,0,9.36-1.04,5.77-11.53,3.04-20.96-1.13-3.88,2.55-7.57,6.39-6.3,3.41,1.13,6.19,3.97,5.45,11.28l-.09,82.62c.3,11.52-5.01,12.19-15.68,12.3-.24,0-.36,.36-.36,1.07s.12,1.07,.36,1.07c3.92,0,6.95-.06,9.09-1.23l12.12,1.19h12.3c2.14-.02,5.05,.04,8.73,.04,.36,0,.53-.36,.53-1.07s-.18-1.07-.53-1.07c-11.15-.2-15.38-.35-14.56-12.3v-39.46c-.44-1.65,.95-2.94,2.6-2.85,4.49,.26,8.67,.26,12.73-.64,1.13-.25,2.29,.22,2.93,1.18,16.18,24.06,50.15,95.31,67.25,106.72,.48,.32,1.05,.49,1.64,.47,4-.15,27.48,2.89,23.14,.38Zm-99.77-112.06c-2.95,0-5.61-.13-7.99-.38-1.44-.15-2.53-1.39-2.53-2.84,0-8.06,0-32.78,0-32.78-.42-9.41,2.44-13.25,11.76-12.65,14.49,0,21.74,8.62,21.74,25.84-.13,16.56-6.5,22.67-22.99,22.81Z"/></g><g><path class="cls-1" d="M120.89,16.48l.75,3.26c1.14,4.94,4.43,8.8,8.63,10.14l2.77,.88c.27,.09,.27,.54,0,.62l-2.77,.88c-4.21,1.34-7.49,5.2-8.63,10.14l-.75,3.26c-.07,.32-.46,.32-.53,0l-.75-3.26c-1.14-4.94-4.43-8.8-8.63-10.14l-2.77-.88c-.27-.09-.27-.54,0-.62l2.77-.88c4.21-1.34,7.49-5.2,8.63-10.14l.75-3.26c.07-.32,.46-.32,.53,0Z"/><path class="cls-1" d="M12.89,16.48l.75,3.26c1.14,4.94,4.43,8.8,8.63,10.14l2.77,.88c.27,.09,.27,.54,0,.62l-2.77,.88c-4.21,1.34-7.49,5.2-8.63,10.14l-.75,3.26c-.07,.32-.46,.32-.53,0l-.75-3.26c-1.14-4.94-4.43-8.8-8.63-10.14l-2.77-.88c-.27-.09-.27-.54,0-.62l2.77-.88c4.21-1.34,7.49-5.2,8.63-10.14l.75-3.26c.07-.32,.46-.32,.53,0Z"/><path class="cls-2" d="M69.95,61.85c-.85-1.76-1.01-3.78-.39-5.63,2.87-8.59,9.04-21.16,16.72-23.61l5.65-1.8c.62-.2,.62-1.07,0-1.27l-5.65-1.8c-8.56-2.73-15.25-10.59-17.58-20.66l-1.53-6.64c-.13-.57-.95-.57-1.08,0l-1.53,6.64c-2.32,10.07-9.01,17.93-17.58,20.66l-5.65,1.8c-.62,.2-.62,1.07,0,1.27l5.65,1.8c7.68,2.45,13.85,15.02,16.72,23.61,.62,1.85,.46,3.87-.39,5.63-7.92,16.37-50.67,99.88-50.67,123.24,0,28.4,24.18,51.43,54,51.43s54-23.03,54-51.43c0-23.36-42.76-106.87-50.67-123.24Zm14.42,141.19c-1.77,2.87-4.37,5.14-7.79,6.8-3.43,1.66-7.53,2.49-12.32,2.49-5.67,0-10.87-1.29-15.58-3.87-.37-.22-.61-.48-.72-.77-.11-.29-.2-.73-.28-1.33l-1.44-15.03c-.07-.29,.09-.48,.5-.55,.4-.07,.64,.04,.72,.33,1.18,5.3,3.37,9.88,6.58,13.71,3.21,3.83,7.46,5.75,12.77,5.75,3.68,0,6.8-1.01,9.34-3.04,2.54-2.03,3.81-5.25,3.81-9.67,0-3.32-.74-6.19-2.21-8.62-1.47-2.43-3.26-4.44-5.36-6.02-2.1-1.58-4.96-3.44-8.57-5.58-3.54-2.13-6.32-3.98-8.34-5.53-2.03-1.55-3.74-3.5-5.14-5.86-1.4-2.36-2.1-5.12-2.1-8.29,0-3.68,.98-6.83,2.93-9.45,1.95-2.61,4.49-4.57,7.63-5.86,3.13-1.29,6.46-1.93,10-1.93,4.35,0,8.66,.88,12.93,2.65,1.11,.37,1.66,.99,1.66,1.88l.77,12.71c0,.29-.19,.44-.55,.44s-.59-.15-.66-.44c-.59-3.83-2.17-7.39-4.75-10.67-2.58-3.28-6.3-4.92-11.16-4.92-4.13,0-7.2,1.2-9.23,3.59-2.03,2.39-3.04,5.36-3.04,8.9,0,2.87,.7,5.38,2.1,7.52,1.4,2.14,3.09,3.92,5.08,5.36,1.99,1.44,4.79,3.26,8.4,5.47,3.83,2.29,6.81,4.2,8.95,5.75,2.14,1.55,3.96,3.52,5.47,5.91,1.51,2.39,2.27,5.25,2.27,8.56,0,3.54-.88,6.74-2.65,9.62Z"/></g></g></g></svg>